<svg xmlns="http://www.w3.org/2000/svg" fill="#fff" viewBox="0 0 53.942 53.942" style="enable-background:new 0 0 53.942 53.942" xml:space="preserve"><path d="M29.977 24.922a.997.997 0 0 0 .707-.293L45.977 9.336v9.586a1 1 0 1 0 2 0v-12a.996.996 0 0 0-.618-.923 1.001 1.001 0 0 0-.415-.071c-.011 0-.02-.006-.032-.006h-12a1 1 0 1 0 0 2h9.65L29.27 23.215a.999.999 0 0 0 .707 1.707z"/><path d="M53.364 40.912c-2.008-3.795-8.981-7.912-9.288-8.092-1.276-.728-2.597-.958-3.721-.646-.844.234-1.532.768-1.996 1.546-1.02 1.22-2.286 2.646-2.592 2.867-2.368 1.604-4.25 1.415-6.294-.629L17.987 24.472c-2.045-2.045-2.233-3.928-.631-6.291.224-.31 1.65-1.575 2.87-2.596.778-.464 1.312-1.152 1.546-1.996.311-1.123.082-2.444-.652-3.731-.173-.296-4.291-7.27-8.085-9.277a4.91 4.91 0 0 0-5.796.872L4.7 3.99C.686 8.004-.767 12.553.379 17.51c.956 4.132 3.742 8.529 8.282 13.068l14.705 14.706c5.762 5.762 11.258 8.656 16.298 8.656 3.701 0 7.157-1.562 10.291-4.695l2.537-2.537a4.91 4.91 0 0 0 .872-5.796zm-2.286 4.381-2.537 2.537c-6.568 6.567-14.563 5.235-23.76-3.961L10.075 29.164C5.804 24.893 3.198 20.82 2.328 17.06c-.994-4.302.244-8.113 3.786-11.656l2.537-2.537a2.925 2.925 0 0 1 3.446-.518c3.293 1.743 7.256 8.454 7.29 8.511.449.787.62 1.608.457 2.196-.1.36-.324.634-.684.836l-.15.104c-.853.712-2.883 2.434-3.308 3.061-.612.904-1.018 1.792-1.231 2.665-.711-1.418-1.286-3.06-1.475-4.881a1.01 1.01 0 0 0-1.098-.892 1.002 1.002 0 0 0-.892 1.099c.722 6.953 6.129 11.479 6.359 11.668.025.02.054.028.08.045l10.613 10.613c.045.045.092.085.137.129.035.051.058.108.104.154.189.187 4.704 4.567 11.599 5.283a1.001 1.001 0 0 0 .206-1.99c-2.114-.219-3.987-.839-5.548-1.558.765-.23 1.543-.612 2.332-1.146.628-.426 2.35-2.455 3.061-3.308l.104-.151c.202-.359.476-.583.836-.684.589-.159 1.409.008 2.186.45.067.04 6.778 4.003 8.521 7.296a2.916 2.916 0 0 1-.518 3.444z"/></svg>