<svg xmlns="http://www.w3.org/2000/svg" fill="#000" width="557.389" height="557.389" style="enable-background:new 0 0 557.389 557.389" xml:space="preserve"><path d="M368.318 0H189.061c-29.223 0-62.529 34.721-62.529 65.159V492.22c0 30.447 33.306 65.169 62.529 65.169h179.258c29.225 0 62.539-34.722 62.539-65.169V65.159C430.857 34.721 397.543 0 368.318 0zm48.196 492.229c0 23.275-26.125 50.825-48.195 50.825H189.061c-22.07 0-48.186-27.55-48.186-50.825V65.159c0-23.275 26.125-50.815 48.186-50.815h179.258c22.07 0 48.195 27.549 48.195 50.815v427.07z"/><path d="M289.15 477.341a1.079 1.079 0 0 0-1.49.172c-.363.469-.287 1.139.172 1.492a14.682 14.682 0 0 1 5.594 11.561c0 8.129-6.598 14.736-14.726 14.736-8.119 0-14.727-6.607-14.727-14.736 0-4.561 2.065-8.797 5.671-11.618a1.034 1.034 0 0 0 .191-1.473c-.363-.469-1.033-.564-1.492-.191a16.767 16.767 0 0 0-6.493 13.282c0 9.305 7.564 16.868 16.859 16.868 9.294 0 16.859-7.563 16.859-16.868a16.862 16.862 0 0 0-6.418-13.225z"/><path d="M278.69 491.627c.593 0 1.062-.469 1.062-1.062v-15.777c0-.594-.479-1.062-1.062-1.062s-1.062.468-1.062 1.062v15.777a1.06 1.06 0 0 0 1.062 1.062z"/><path d="M278.69 458.866c-18.063 0-32.761 14.697-32.761 32.761s14.697 32.762 32.761 32.762c18.064 0 32.761-14.698 32.761-32.762s-14.687-32.761-32.761-32.761zm0 60.741c-15.425 0-27.979-12.546-27.979-27.98 0-15.424 12.546-27.979 27.979-27.979s27.98 12.546 27.98 27.979c0 15.425-12.547 27.98-27.98 27.98zM361.053 87.927H196.347c-12.527 0-22.711 10.174-22.711 22.711v304.804c0 12.518 10.184 22.711 22.711 22.711h164.706c12.525 0 22.711-10.193 22.711-22.711V110.638c0-12.527-10.196-22.711-22.711-22.711zm15.539 327.515c0 8.568-6.973 15.539-15.539 15.539H196.347c-8.568 0-15.539-6.971-15.539-15.539V110.638c0-8.568 6.971-15.539 15.539-15.539h164.706c8.566 0 15.539 6.971 15.539 15.539v304.804z"/><circle cx="233.02" cy="55.769" r="5.977"/><circle cx="272.723" cy="55.769" r="5.977"/><circle cx="312.426" cy="55.769" r="5.977"/></svg>